# Wavefront OBJ file
# Exported by Misfit Model 3D 1.2.4
# Tue Dec 15 19:31:25 2015

mtllib GhostDead.mtl

# 136 Vertices
v 0.0 0.275879 -0.52124
v 0.0 0.0 -0.644531
v -0.394043 0.275879 -0.365478
v -0.45752 0.0 -0.411621
v -0.537842 0.275879 0.028564
v -0.588867 0.0 0.000732
v -0.394043 0.275879 0.422607
v -0.435059 0.0 0.429443
v 0.0 0.275879 0.559815
v 0.0 0.0 0.602295
v 0.394043 0.275879 0.422607
v 0.435059 0.0 0.429443
v 0.537842 0.275879 0.028564
v 0.588867 0.0 0.000732
v 0.394043 0.275879 -0.365478
v 0.45752 0.0 -0.411621
v 0.0 0.275879 -0.52124
v 0.0 0.0 -0.644531
v -0.397217 0.642822 -0.378174
v -0.394043 0.275879 -0.365478
v -0.572021 0.675537 0.028564
v -0.537842 0.275879 0.028564
v -0.451904 0.70166 0.395508
v -0.394043 0.275879 0.422607
v 0.0 0.716797 0.586182
v 0.0 0.275879 0.559815
v 0.451904 0.70166 0.395508
v 0.394043 0.275879 0.422607
v 0.572021 0.675537 0.028564
v 0.537842 0.275879 0.028564
v 0.397217 0.642822 -0.378174
v 0.394043 0.275879 -0.365478
v 0.0 0.275879 -0.52124
v -0.394043 0.275879 -0.365478
v 0.0 0.625244 -0.5271
v -0.397217 0.642822 -0.378174
v 0.0 0.782227 -0.556641
v -0.425049 0.804688 -0.395508
v 0.0 1.138428 -0.581787
v -0.396728 1.18042 -0.419922
v 0.0 1.304932 -0.493164
v -0.301758 1.331055 -0.369873
v 0.0 1.412598 -0.3396
v -0.130127 1.440918 -0.242432
v 0.0 1.412598 -0.3396
v 0.130127 1.440918 -0.242432
v 0.0 1.304932 -0.493164
v 0.301758 1.331055 -0.369873
v 0.0 1.138428 -0.581787
v 0.396728 1.18042 -0.419922
v 0.0 0.782227 -0.556641
v 0.425049 0.804688 -0.395508
v 0.0 0.625244 -0.5271
v 0.397217 0.642822 -0.378174
v 0.0 0.275879 -0.52124
v 0.394043 0.275879 -0.365478
v -0.397217 0.642822 -0.378174
v -0.572021 0.675537 0.028564
v -0.425049 0.804688 -0.395508
v -0.590088 0.847656 0.033936
v -0.396728 1.18042 -0.419922
v -0.531006 1.239258 -0.041992
v -0.301758 1.331055 -0.369873
v -0.402588 1.38623 -0.072754
v -0.130127 1.440918 -0.242432
v -0.197754 1.479004 -0.100342
v -0.572021 0.675537 0.028564
v -0.451904 0.70166 0.395508
v -0.590088 0.847656 0.033936
v -0.472412 0.88916 0.398682
v -0.531006 1.239258 -0.041992
v -0.420654 1.289307 0.29956
v -0.402588 1.38623 -0.072754
v -0.299805 1.4104 0.170898
v -0.197754 1.479004 -0.100342
v -0.140625 1.481934 0.046143
v -0.299805 1.4104 0.170898
v -0.420654 1.289307 0.29956
v 0.0 1.433105 0.329346
v 0.0 1.321533 0.468018
v 0.299805 1.4104 0.170898
v 0.420654 1.289307 0.29956
v 0.402588 1.38623 -0.072754
v 0.531006 1.239258 -0.041992
v 0.301758 1.331055 -0.369873
v 0.396728 1.18042 -0.419922
v -0.140625 1.481934 0.046143
v -0.299805 1.4104 0.170898
v 0.0 1.493896 0.127686
v 0.0 1.433105 0.329346
v 0.140625 1.481934 0.046143
v 0.299805 1.4104 0.170898
v 0.197754 1.479004 -0.100342
v 0.402588 1.38623 -0.072754
v 0.130127 1.440918 -0.242432
v 0.301758 1.331055 -0.369873
v -0.420654 1.289307 0.29956
v -0.472412 0.88916 0.398682
v 0.0 1.321533 0.468018
v 0.0 0.909424 0.597412
v 0.420654 1.289307 0.29956
v 0.472412 0.88916 0.398682
v -0.472412 0.88916 0.398682
v -0.451904 0.70166 0.395508
v 0.0 0.909424 0.597412
v 0.0 0.716797 0.586182
v 0.472412 0.88916 0.398682
v 0.451904 0.70166 0.395508
v 0.425049 0.804688 -0.395508
v 0.396728 1.18042 -0.419922
v 0.590088 0.847656 0.033936
v 0.531006 1.239258 -0.041992
v 0.472412 0.88916 0.398682
v 0.420654 1.289307 0.29956
v 0.397217 0.642822 -0.378174
v 0.425049 0.804688 -0.395508
v 0.572021 0.675537 0.028564
v 0.590088 0.847656 0.033936
v 0.451904 0.70166 0.395508
v 0.472412 0.88916 0.398682
v -0.130127 1.440918 -0.242432
v -0.197754 1.479004 -0.100342
v 0.0 1.50415 -0.116943
v -0.140625 1.481934 0.046143
v 0.0 1.493896 0.127686
v -0.130127 1.440918 -0.242432
v 0.0 1.50415 -0.116943
v 0.0 1.412598 -0.3396
v 0.130127 1.440918 -0.242432
v 0.130127 1.440918 -0.242432
v 0.0 1.50415 -0.116943
v 0.197754 1.479004 -0.100342
v 0.140625 1.481934 0.046143
v 0.0 1.493896 0.127686
v 0.140625 1.481934 0.046143
v 0.0 1.50415 -0.116943

# 312 Texture Coordinates
vt 0.0 -0.070313
vt 0.0 -0.851563
vt 0.546875 -0.070313
vt 0.0 -0.851563
vt 0.554688 -0.875
vt 0.546875 -0.070313
vt 0.546875 -0.070313
vt 0.554688 -0.875
vt 1.0625 -0.070313
vt 0.554688 -0.875
vt 1.023438 -0.875
vt 1.0625 -0.070313
vt 1.0625 -0.070313
vt 1.023438 -0.875
vt 1.539063 -0.070313
vt 1.023438 -0.875
vt 1.515625 -0.875
vt 1.539063 -0.070313
vt 1.539063 -0.070313
vt 1.515625 -0.875
vt 2.0 -0.070313
vt 1.515625 -0.875
vt 2.0 -0.875
vt 2.0 -0.070313
vt 2.0 -0.070313
vt 2.0 -0.875
vt 2.460938 -0.070313
vt 2.0 -0.875
vt 2.484375 -0.875
vt 2.460938 -0.070313
vt 2.460938 -0.070313
vt 2.484375 -0.875
vt 2.9375 -0.070313
vt 2.484375 -0.875
vt 2.976563 -0.875
vt 2.9375 -0.070313
vt 2.9375 -0.070313
vt 2.976563 -0.875
vt 3.453125 -0.070313
vt 2.976563 -0.875
vt 3.445313 -0.875
vt 3.453125 -0.070313
vt 3.453125 -0.070313
vt 3.445313 -0.875
vt 4.0 -0.070313
vt 3.445313 -0.875
vt 4.0 -0.851563
vt 4.0 -0.070313
vt 0.111328 -0.736328
vt 0.111328 -0.740234
vt 0.089844 -0.736328
vt 0.111328 -0.740234
vt 0.089844 -0.740234
vt 0.089844 -0.736328
vt 0.089844 -0.736328
vt 0.089844 -0.740234
vt 0.083984 -0.736328
vt 0.089844 -0.740234
vt 0.083984 -0.740234
vt 0.083984 -0.736328
vt 0.083984 -0.736328
vt 0.083984 -0.740234
vt 0.080078 -0.736328
vt 0.083984 -0.740234
vt 0.080078 -0.740234
vt 0.080078 -0.736328
vt 0.080078 -0.736328
vt 0.080078 -0.740234
vt 0.083984 -0.736328
vt 0.080078 -0.740234
vt 0.083984 -0.740234
vt 0.083984 -0.736328
vt 0.083984 -0.736328
vt 0.083984 -0.740234
vt 0.089844 -0.736328
vt 0.083984 -0.740234
vt 0.089844 -0.740234
vt 0.089844 -0.736328
vt 0.089844 -0.736328
vt 0.089844 -0.740234
vt 0.111328 -0.736328
vt 0.089844 -0.740234
vt 0.111328 -0.740234
vt 0.111328 -0.736328
vt 0.060547 -0.740234
vt 0.054688 -0.740234
vt 0.060547 -0.736328
vt 0.054688 -0.740234
vt 0.054688 -0.736328
vt 0.060547 -0.736328
vt 0.060547 -0.736328
vt 0.054688 -0.736328
vt 0.060547 -0.732422
vt 0.054688 -0.736328
vt 0.054688 -0.732422
vt 0.060547 -0.732422
vt 0.060547 -0.732422
vt 0.054688 -0.732422
vt 0.060547 -0.730469
vt 0.054688 -0.732422
vt 0.054688 -0.730469
vt 0.060547 -0.730469
vt 0.060547 -0.730469
vt 0.054688 -0.730469
vt 0.060547 -0.726563
vt 0.054688 -0.730469
vt 0.054688 -0.726563
vt 0.060547 -0.726563
vt 0.060547 -0.726563
vt 0.054688 -0.726563
vt 0.060547 -0.722656
vt 0.054688 -0.726563
vt 0.054688 -0.722656
vt 0.060547 -0.722656
vt 0.060547 -0.722656
vt 0.054688 -0.722656
vt 0.060547 -0.726563
vt 0.054688 -0.722656
vt 0.054688 -0.726563
vt 0.060547 -0.726563
vt 0.060547 -0.726563
vt 0.054688 -0.726563
vt 0.060547 -0.730469
vt 0.054688 -0.726563
vt 0.054688 -0.730469
vt 0.060547 -0.730469
vt 0.060547 -0.730469
vt 0.054688 -0.730469
vt 0.060547 -0.732422
vt 0.054688 -0.730469
vt 0.054688 -0.732422
vt 0.060547 -0.732422
vt 0.060547 -0.732422
vt 0.054688 -0.732422
vt 0.060547 -0.736328
vt 0.054688 -0.732422
vt 0.054688 -0.736328
vt 0.060547 -0.736328
vt 0.060547 -0.736328
vt 0.054688 -0.736328
vt 0.060547 -0.740234
vt 0.054688 -0.736328
vt 0.054688 -0.740234
vt 0.060547 -0.740234
vt 0.111328 -0.736328
vt 0.089844 -0.736328
vt 0.111328 -0.732422
vt 0.089844 -0.736328
vt 0.089844 -0.732422
vt 0.111328 -0.732422
vt 0.111328 -0.732422
vt 0.089844 -0.732422
vt 0.111328 -0.730469
vt 0.089844 -0.732422
vt 0.089844 -0.730469
vt 0.111328 -0.730469
vt 0.111328 -0.730469
vt 0.089844 -0.730469
vt 0.111328 -0.726563
vt 0.089844 -0.730469
vt 0.089844 -0.726563
vt 0.111328 -0.726563
vt 0.111328 -0.726563
vt 0.089844 -0.726563
vt 0.111328 -0.722656
vt 0.089844 -0.726563
vt 0.089844 -0.722656
vt 0.111328 -0.722656
vt 0.089844 -0.736328
vt 0.083984 -0.736328
vt 0.089844 -0.732422
vt 0.083984 -0.736328
vt 0.083984 -0.732422
vt 0.089844 -0.732422
vt 0.089844 -0.732422
vt 0.083984 -0.732422
vt 0.089844 -0.730469
vt 0.083984 -0.732422
vt 0.083984 -0.730469
vt 0.089844 -0.730469
vt 0.089844 -0.730469
vt 0.083984 -0.730469
vt 0.089844 -0.726563
vt 0.083984 -0.730469
vt 0.083984 -0.726563
vt 0.089844 -0.726563
vt 0.089844 -0.726563
vt 0.083984 -0.726563
vt 0.089844 -0.722656
vt 0.083984 -0.726563
vt 0.083984 -0.722656
vt 0.089844 -0.722656
vt 0.083984 -0.726563
vt 0.083984 -0.730469
vt 0.080078 -0.726563
vt 0.083984 -0.730469
vt 0.080078 -0.730469
vt 0.080078 -0.726563
vt 0.080078 -0.726563
vt 0.080078 -0.730469
vt 0.083984 -0.726563
vt 0.080078 -0.730469
vt 0.083984 -0.730469
vt 0.083984 -0.726563
vt 0.083984 -0.726563
vt 0.083984 -0.730469
vt 0.089844 -0.726563
vt 0.083984 -0.730469
vt 0.089844 -0.730469
vt 0.089844 -0.726563
vt 0.089844 -0.726563
vt 0.089844 -0.730469
vt 0.111328 -0.726563
vt 0.089844 -0.730469
vt 0.111328 -0.730469
vt 0.111328 -0.726563
vt 0.083984 -0.722656
vt 0.083984 -0.726563
vt 0.080078 -0.722656
vt 0.083984 -0.726563
vt 0.080078 -0.726563
vt 0.080078 -0.722656
vt 0.080078 -0.722656
vt 0.080078 -0.726563
vt 0.083984 -0.722656
vt 0.080078 -0.726563
vt 0.083984 -0.726563
vt 0.083984 -0.722656
vt 0.083984 -0.722656
vt 0.083984 -0.726563
vt 0.089844 -0.722656
vt 0.083984 -0.726563
vt 0.089844 -0.726563
vt 0.089844 -0.722656
vt 0.089844 -0.722656
vt 0.089844 -0.726563
vt 0.111328 -0.722656
vt 0.089844 -0.726563
vt 0.111328 -0.726563
vt 0.111328 -0.722656
vt 0.974609 -0.248047
vt 0.978516 -1.001953
vt 0.119141 -0.275391
vt 0.978516 -1.001953
vt 0.119141 -1.001953
vt 0.119141 -0.275391
vt 0.119141 -0.275391
vt 0.119141 -1.001953
vt 0.974609 -0.248047
vt 0.119141 -1.001953
vt 0.978516 -1.001953
vt 0.974609 -0.248047
vt 0.609375 -0.013672
vt 0.556641 -0.244141
vt 0.011719 -0.013672
vt 0.556641 -0.244141
vt 0.013672 -0.304688
vt 0.011719 -0.013672
vt 0.011719 -0.013672
vt 0.013672 -0.304688
vt 0.609375 -0.013672
vt 0.013672 -0.304688
vt 0.556641 -0.244141
vt 0.609375 -0.013672
vt 0.111328 -0.732422
vt 0.111328 -0.730469
vt 0.089844 -0.732422
vt 0.111328 -0.730469
vt 0.089844 -0.730469
vt 0.089844 -0.732422
vt 0.089844 -0.732422
vt 0.089844 -0.730469
vt 0.083984 -0.732422
vt 0.089844 -0.730469
vt 0.083984 -0.730469
vt 0.083984 -0.732422
vt 0.111328 -0.736328
vt 0.111328 -0.732422
vt 0.089844 -0.736328
vt 0.111328 -0.732422
vt 0.089844 -0.732422
vt 0.089844 -0.736328
vt 0.089844 -0.736328
vt 0.089844 -0.732422
vt 0.083984 -0.736328
vt 0.089844 -0.732422
vt 0.083984 -0.732422
vt 0.083984 -0.736328
vt 0.111328 -0.722656
vt 0.089844 -0.722656
vt 0.074219 -0.720703
vt 0.089844 -0.722656
vt 0.083984 -0.722656
vt 0.074219 -0.720703
vt 0.074219 -0.720703
vt 0.083984 -0.722656
vt 0.080078 -0.722656
vt 0.054688 -0.722656
vt 0.074219 -0.720703
vt 0.060547 -0.722656
vt 0.074219 -0.720703
vt 0.054688 -0.722656
vt 0.060547 -0.722656
vt 0.111328 -0.722656
vt 0.074219 -0.720703
vt 0.089844 -0.722656
vt 0.074219 -0.720703
vt 0.083984 -0.722656
vt 0.089844 -0.722656
vt 0.080078 -0.722656
vt 0.083984 -0.722656
vt 0.074219 -0.720703

# 312 Vertex Normals
vn -0.339462 0.383784 -0.858764
vn -0.391042 0.315881 -0.864468
vn -0.601362 0.318727 -0.73265
vn -0.391042 0.315881 -0.864468
vn -0.80949 0.252913 -0.529869
vn -0.601362 0.318727 -0.73265
vn -0.601362 0.318727 -0.73265
vn -0.80949 0.252913 -0.529869
vn -0.972007 0.212042 -0.101194
vn -0.80949 0.252913 -0.529869
vn -0.976589 0.17022 0.131526
vn -0.972007 0.212042 -0.101194
vn -0.972007 0.212042 -0.101194
vn -0.976589 0.17022 0.131526
vn -0.797845 0.129958 0.588689
vn -0.976589 0.17022 0.131526
vn -0.58963 0.130829 0.797007
vn -0.797845 0.129958 0.588689
vn -0.797845 0.129958 0.588689
vn -0.58963 0.130829 0.797007
vn -0.12946 0.125799 0.983572
vn -0.58963 0.130829 0.797007
vn 0.116164 0.128639 0.984864
vn -0.12946 0.125799 0.983572
vn -0.12946 0.125799 0.983572
vn 0.116164 0.128639 0.984864
vn 0.588266 0.133455 0.797579
vn 0.116164 0.128639 0.984864
vn 0.805418 0.131103 0.578026
vn 0.588266 0.133455 0.797579
vn 0.588266 0.133455 0.797579
vn 0.805418 0.131103 0.578026
vn 0.977902 0.17201 0.118827
vn 0.805418 0.131103 0.578026
vn 0.971909 0.211545 -0.10316
vn 0.977902 0.17201 0.118827
vn 0.977902 0.17201 0.118827
vn 0.971909 0.211545 -0.10316
vn 0.793604 0.252172 -0.553717
vn 0.971909 0.211545 -0.10316
vn 0.610854 0.310731 -0.728219
vn 0.793604 0.252172 -0.553717
vn 0.793604 0.252172 -0.553717
vn 0.610854 0.310731 -0.728219
vn 0.39086 0.30283 -0.869208
vn 0.610854 0.310731 -0.728219
vn 0.421473 0.370002 -0.827925
vn 0.39086 0.30283 -0.869208
vn -0.91916 -0.021557 -0.393295
vn -0.928513 -0.05086 -0.367799
vn -0.986912 -0.064302 -0.147885
vn -0.928513 -0.05086 -0.367799
vn -0.989466 -0.093531 0.110493
vn -0.986912 -0.064302 -0.147885
vn -0.986912 -0.064302 -0.147885
vn -0.989466 -0.093531 0.110493
vn -0.819286 -0.065125 0.569674
vn -0.989466 -0.093531 0.110493
vn -0.598488 -0.056483 0.799138
vn -0.819286 -0.065125 0.569674
vn -0.819286 -0.065125 0.569674
vn -0.598488 -0.056483 0.799138
vn -0.117817 -0.037648 0.992321
vn -0.598488 -0.056483 0.799138
vn 0.136489 -0.033858 0.990063
vn -0.117817 -0.037648 0.992321
vn -0.117817 -0.037648 0.992321
vn 0.136489 -0.033858 0.990063
vn 0.604272 -0.053794 0.79496
vn 0.136489 -0.033858 0.990063
vn 0.807713 -0.063155 0.586184
vn 0.604272 -0.053794 0.79496
vn 0.604272 -0.053794 0.79496
vn 0.807713 -0.063155 0.586184
vn 0.990937 -0.094437 0.095526
vn 0.807713 -0.063155 0.586184
vn 0.98845 -0.063185 -0.137745
vn 0.990937 -0.094437 0.095526
vn 0.990937 -0.094437 0.095526
vn 0.98845 -0.063185 -0.137745
vn 0.92939 -0.04929 -0.365793
vn 0.98845 -0.063185 -0.137745
vn 0.939214 -0.019982 -0.342749
vn 0.92939 -0.04929 -0.365793
vn -0.367568 -0.015595 -0.929866
vn -0.35992 -0.025502 -0.932634
vn -0.358313 -0.074876 -0.930594
vn -0.35992 -0.025502 -0.932634
vn -0.354685 -0.123056 -0.926853
vn -0.358313 -0.074876 -0.930594
vn -0.358313 -0.074876 -0.930594
vn -0.354685 -0.123056 -0.926853
vn -0.355915 -0.133098 -0.924992
vn -0.354685 -0.123056 -0.926853
vn -0.365388 -0.085849 -0.926888
vn -0.355915 -0.133098 -0.924992
vn -0.355915 -0.133098 -0.924992
vn -0.365388 -0.085849 -0.926888
vn -0.355001 0.12074 -0.927036
vn -0.365388 -0.085849 -0.926888
vn -0.335156 0.302993 -0.892113
vn -0.355001 0.12074 -0.927036
vn -0.355001 0.12074 -0.927036
vn -0.335156 0.302993 -0.892113
vn -0.2589 0.588429 -0.765978
vn -0.335156 0.302993 -0.892113
vn -0.220296 0.729009 -0.648087
vn -0.2589 0.588429 -0.765978
vn -0.2589 0.588429 -0.765978
vn -0.220296 0.729009 -0.648087
vn -0.171459 0.830977 -0.529225
vn -0.220296 0.729009 -0.648087
vn -0.181051 0.852226 -0.490847
vn -0.171459 0.830977 -0.529225
vn 0.242967 0.794268 -0.556871
vn 0.193489 0.816846 -0.543438
vn 0.236955 0.712646 -0.660293
vn 0.193489 0.816846 -0.543438
vn 0.254558 0.600348 -0.758144
vn 0.236955 0.712646 -0.660293
vn 0.236955 0.712646 -0.660293
vn 0.254558 0.600348 -0.758144
vn 0.337572 0.291006 -0.895187
vn 0.254558 0.600348 -0.758144
vn 0.354864 0.125119 -0.926508
vn 0.337572 0.291006 -0.895187
vn 0.337572 0.291006 -0.895187
vn 0.354864 0.125119 -0.926508
vn 0.365957 -0.090723 -0.926199
vn 0.354864 0.125119 -0.926508
vn 0.35594 -0.122242 -0.926479
vn 0.365957 -0.090723 -0.926199
vn 0.365957 -0.090723 -0.926199
vn 0.35594 -0.122242 -0.926479
vn 0.354739 -0.116242 -0.927711
vn 0.35594 -0.122242 -0.926479
vn 0.357993 -0.070287 -0.931075
vn 0.354739 -0.116242 -0.927711
vn 0.354739 -0.116242 -0.927711
vn 0.357993 -0.070287 -0.931075
vn 0.359535 -0.025518 -0.932783
vn 0.357993 -0.070287 -0.931075
vn 0.367383 -0.035332 -0.929398
vn 0.359535 -0.025518 -0.932783
vn -0.906559 -0.195915 -0.373856
vn -0.921186 -0.141687 -0.36241
vn -0.928088 -0.079165 -0.363848
vn -0.921186 -0.141687 -0.36241
vn -0.935556 0.011397 -0.352994
vn -0.928088 -0.079165 -0.363848
vn -0.928088 -0.079165 -0.363848
vn -0.935556 0.011397 -0.352994
vn -0.898756 0.242219 -0.365469
vn -0.935556 0.011397 -0.352994
vn -0.830633 0.422455 -0.36274
vn -0.898756 0.242219 -0.365469
vn -0.898756 0.242219 -0.365469
vn -0.830633 0.422455 -0.36274
vn -0.627785 0.699705 -0.341026
vn -0.830633 0.422455 -0.36274
vn -0.518497 0.774608 -0.362137
vn -0.627785 0.699705 -0.341026
vn -0.627785 0.699705 -0.341026
vn -0.518497 0.774608 -0.362137
vn -0.390263 0.850538 -0.352533
vn -0.518497 0.774608 -0.362137
vn -0.421052 0.805813 -0.41639
vn -0.390263 0.850538 -0.352533
vn -0.94242 -0.108789 0.316242
vn -0.942417 -0.108611 0.316313
vn -0.951455 -0.007086 0.307706
vn -0.942417 -0.108611 0.316313
vn -0.951129 0.093661 0.294248
vn -0.951455 -0.007086 0.307706
vn -0.951455 -0.007086 0.307706
vn -0.951129 0.093661 0.294248
vn -0.900297 0.363331 0.239699
vn -0.951129 0.093661 0.294248
vn -0.793274 0.572996 0.205892
vn -0.900297 0.363331 0.239699
vn -0.900297 0.363331 0.239699
vn -0.793274 0.572996 0.205892
vn -0.585976 0.79938 0.132756
vn -0.793274 0.572996 0.205892
vn -0.448811 0.885135 0.122899
vn -0.585976 0.79938 0.132756
vn -0.585976 0.79938 0.132756
vn -0.448811 0.885135 0.122899
vn -0.368221 0.924833 0.095377
vn -0.448811 0.885135 0.122899
vn -0.333457 0.93617 0.111323
vn -0.368221 0.924833 0.095377
vn -0.314331 0.820681 0.477157
vn -0.306334 0.784414 0.539309
vn -0.087154 0.806676 0.584532
vn -0.306334 0.784414 0.539309
vn 0.117007 0.797209 0.592256
vn -0.087154 0.806676 0.584532
vn -0.087154 0.806676 0.584532
vn 0.117007 0.797209 0.592256
vn 0.421183 0.795337 0.435939
vn 0.117007 0.797209 0.592256
vn 0.552357 0.78298 0.286084
vn 0.421183 0.795337 0.435939
vn 0.421183 0.795337 0.435939
vn 0.552357 0.78298 0.286084
vn 0.715107 0.698851 -0.015173
vn 0.552357 0.78298 0.286084
vn 0.756527 0.624053 -0.195512
vn 0.715107 0.698851 -0.015173
vn 0.715107 0.698851 -0.015173
vn 0.756527 0.624053 -0.195512
vn 0.737037 0.575625 -0.354165
vn 0.756527 0.624053 -0.195512
vn 0.734871 0.580068 -0.351406
vn 0.737037 0.575625 -0.354165
vn -0.225866 0.941145 0.251455
vn -0.222739 0.93773 0.266551
vn -0.06969 0.958107 0.277804
vn -0.222739 0.93773 0.266551
vn 0.079962 0.955844 0.282788
vn -0.06969 0.958107 0.277804
vn -0.06969 0.958107 0.277804
vn 0.079962 0.955844 0.282788
vn 0.263633 0.939056 0.220617
vn 0.079962 0.955844 0.282788
vn 0.318239 0.935461 0.153742
vn 0.263633 0.939056 0.220617
vn 0.263633 0.939056 0.220617
vn 0.318239 0.935461 0.153742
vn 0.398386 0.913917 -0.077751
vn 0.318239 0.935461 0.153742
vn 0.402944 0.890138 -0.212814
vn 0.398386 0.913917 -0.077751
vn 0.398386 0.913917 -0.077751
vn 0.402944 0.890138 -0.212814
vn 0.390262 0.850538 -0.352533
vn 0.402944 0.890138 -0.212814
vn 0.356731 0.889288 -0.2862
vn 0.390262 0.850538 -0.352533
vn -0.375774 0.268329 0.887014
vn -0.379232 0.27255 0.884251
vn -0.136622 0.293447 0.946162
vn -0.379232 0.27255 0.884251
vn 0.134303 0.293924 0.946346
vn -0.136622 0.293447 0.946162
vn -0.136622 0.293447 0.946162
vn 0.134303 0.293924 0.946346
vn 0.379349 0.273077 0.884038
vn 0.134303 0.293924 0.946346
vn 0.383284 0.268491 0.883746
vn 0.379349 0.273077 0.884038
vn -0.385009 -0.057702 0.921107
vn -0.385835 -0.055689 0.920885
vn -0.138267 -0.05907 0.988632
vn -0.385835 -0.055689 0.920885
vn 0.137807 -0.05914 0.988692
vn -0.138267 -0.05907 0.988632
vn -0.138267 -0.05907 0.988632
vn 0.137807 -0.05914 0.988692
vn 0.385846 -0.05578 0.920875
vn 0.137807 -0.05914 0.988692
vn 0.38645 -0.057849 0.920494
vn 0.385846 -0.05578 0.920875
vn 0.930856 0.046614 -0.362401
vn 0.93354 0.060558 -0.353321
vn 0.982567 0.11109 -0.149069
vn 0.93354 0.060558 -0.353321
vn 0.984139 0.161027 0.074436
vn 0.982567 0.11109 -0.149069
vn 0.982567 0.11109 -0.149069
vn 0.984139 0.161027 0.074436
vn 0.940756 0.193258 0.278622
vn 0.984139 0.161027 0.074436
vn 0.941991 0.190326 0.276457
vn 0.940756 0.193258 0.278622
vn 0.906559 -0.195915 -0.373856
vn 0.921186 -0.141687 -0.36241
vn 0.97998 -0.13799 -0.143518
vn 0.921186 -0.141687 -0.36241
vn 0.989307 -0.106814 0.099313
vn 0.97998 -0.13799 -0.143518
vn 0.97998 -0.13799 -0.143518
vn 0.989307 -0.106814 0.099313
vn 0.942417 -0.108611 0.316313
vn 0.989307 -0.106814 0.099313
vn 0.942414 -0.108432 0.316384
vn 0.942417 -0.108611 0.316313
vn -0.145912 0.936 -0.320334
vn -0.13699 0.979409 -0.148297
vn -0.127966 0.988158 -0.084665
vn -0.13699 0.979409 -0.148297
vn -0.116191 0.992609 0.035028
vn -0.127966 0.988158 -0.084665
vn -0.127966 0.988158 -0.084665
vn -0.116191 0.992609 0.035028
vn -0.108627 0.99321 0.041632
vn -0.082404 0.921723 -0.378995
vn 0.0 0.924868 -0.380288
vn 0.0 0.924868 -0.380288
vn 0.0 0.924868 -0.380288
vn 0.082404 0.921723 -0.378995
vn 0.0 0.924868 -0.380288
vn 0.145912 0.936 -0.320334
vn 0.136989 0.979409 -0.148297
vn 0.136989 0.979409 -0.148297
vn 0.136989 0.979409 -0.148297
vn 0.123743 0.991907 0.02842
vn 0.136989 0.979409 -0.148297
vn 0.108627 0.99321 0.041632
vn 0.108627 0.99321 0.041632
vn 0.108627 0.99321 0.041632

# polygon0, 16 grouped triangles

usemtl s_mo2_i0_cmp4
o polygon0
g polygon0

f 1/1/1 2/2/2 3/3/3
f 2/4/4 4/5/5 3/6/6
f 3/7/7 4/8/8 5/9/9
f 4/10/10 6/11/11 5/12/12
f 5/13/13 6/14/14 7/15/15
f 6/16/16 8/17/17 7/18/18
f 7/19/19 8/20/20 9/21/21
f 8/22/22 10/23/23 9/24/24
f 9/25/25 10/26/26 11/27/27
f 10/28/28 12/29/29 11/30/30
f 11/31/31 12/32/32 13/33/33
f 12/34/34 14/35/35 13/36/36
f 13/37/37 14/38/38 15/39/39
f 14/40/40 16/41/41 15/42/42
f 15/43/43 16/44/44 17/45/45
f 16/46/46 18/47/47 17/48/48
# polygon12, 88 grouped triangles

usemtl s_mon_i0_cmp4
o polygon12
g polygon12

f 19/49/49 20/50/50 21/51/51
f 20/52/52 22/53/53 21/54/54
f 21/55/55 22/56/56 23/57/57
f 22/58/58 24/59/59 23/60/60
f 23/61/61 24/62/62 25/63/63
f 24/64/64 26/65/65 25/66/66
f 25/67/67 26/68/68 27/69/69
f 26/70/70 28/71/71 27/72/72
f 27/73/73 28/74/74 29/75/75
f 28/76/76 30/77/77 29/78/78
f 29/79/79 30/80/80 31/81/81
f 30/82/82 32/83/83 31/84/84
f 33/85/85 34/86/86 35/87/87
f 34/88/88 36/89/89 35/90/90
f 35/91/91 36/92/92 37/93/93
f 36/94/94 38/95/95 37/96/96
f 37/97/97 38/98/98 39/99/99
f 38/100/100 40/101/101 39/102/102
f 39/103/103 40/104/104 41/105/105
f 40/106/106 42/107/107 41/108/108
f 41/109/109 42/110/110 43/111/111
f 42/112/112 44/113/113 43/114/114
f 45/115/115 46/116/116 47/117/117
f 46/118/118 48/119/119 47/120/120
f 47/121/121 48/122/122 49/123/123
f 48/124/124 50/125/125 49/126/126
f 49/127/127 50/128/128 51/129/129
f 50/130/130 52/131/131 51/132/132
f 51/133/133 52/134/134 53/135/135
f 52/136/136 54/137/137 53/138/138
f 53/139/139 54/140/140 55/141/141
f 54/142/142 56/143/143 55/144/144
f 57/145/145 58/146/146 59/147/147
f 58/148/148 60/149/149 59/150/150
f 59/151/151 60/152/152 61/153/153
f 60/154/154 62/155/155 61/156/156
f 61/157/157 62/158/158 63/159/159
f 62/160/160 64/161/161 63/162/162
f 63/163/163 64/164/164 65/165/165
f 64/166/166 66/167/167 65/168/168
f 67/169/169 68/170/170 69/171/171
f 68/172/172 70/173/173 69/174/174
f 69/175/175 70/176/176 71/177/177
f 70/178/178 72/179/179 71/180/180
f 71/181/181 72/182/182 73/183/183
f 72/184/184 74/185/185 73/186/186
f 73/187/187 74/188/188 75/189/189
f 74/190/190 76/191/191 75/192/192
f 77/193/193 78/194/194 79/195/195
f 78/196/196 80/197/197 79/198/198
f 79/199/199 80/200/200 81/201/201
f 80/202/202 82/203/203 81/204/204
f 81/205/205 82/206/206 83/207/207
f 82/208/208 84/209/209 83/210/210
f 83/211/211 84/212/212 85/213/213
f 84/214/214 86/215/215 85/216/216
f 87/217/217 88/218/218 89/219/219
f 88/220/220 90/221/221 89/222/222
f 89/223/223 90/224/224 91/225/225
f 90/226/226 92/227/227 91/228/228
f 91/229/229 92/230/230 93/231/231
f 92/232/232 94/233/233 93/234/234
f 93/235/235 94/236/236 95/237/237
f 94/238/238 96/239/239 95/240/240
f 97/241/241 98/242/242 99/243/243
f 98/244/244 100/245/245 99/246/246
f 99/247/247 100/248/248 101/249/249
f 100/250/250 102/251/251 101/252/252
f 103/253/253 104/254/254 105/255/255
f 104/256/256 106/257/257 105/258/258
f 105/259/259 106/260/260 107/261/261
f 106/262/262 108/263/263 107/264/264
f 109/265/265 110/266/266 111/267/267
f 110/268/268 112/269/269 111/270/270
f 111/271/271 112/272/272 113/273/273
f 112/274/274 114/275/275 113/276/276
f 115/277/277 116/278/278 117/279/279
f 116/280/280 118/281/281 117/282/282
f 117/283/283 118/284/284 119/285/285
f 118/286/286 120/287/287 119/288/288
f 121/289/289 122/290/290 123/291/291
f 122/292/292 124/293/293 123/294/294
f 123/295/295 124/296/296 125/297/297
f 126/298/298 127/299/299 128/300/300
f 127/301/301 129/302/302 128/303/303
f 130/304/304 131/305/305 132/306/306
f 131/307/307 133/308/308 132/309/309
f 134/310/310 135/311/311 136/312/312
